<svg version="1.2" xmlns="http://www.w3.org/2000/svg" viewBox="0 0 760 718" width="760" height="718">
	<title>267323-P57UUP-584-ai</title>
	<defs>
		<linearGradient id="g1" x2="1" gradientUnits="userSpaceOnUse" gradientTransform="matrix(-299.399,88.846,-61.443,-207.055,442.3,418.769)">
			<stop offset="0" stop-color="#ffffff"/>
			<stop offset="1" stop-color="#b8d0f2"/>
		</linearGradient>
		<linearGradient id="g2" x2="1" gradientUnits="userSpaceOnUse" gradientTransform="matrix(-80.752,257.638,-226.246,-70.913,697.78,174.903)">
			<stop offset="0" stop-color="#ffffff"/>
			<stop offset="1" stop-color="#b8d0f2"/>
		</linearGradient>
		<linearGradient id="g3" x2="1" gradientUnits="userSpaceOnUse" gradientTransform="matrix(90.037,0,0,54.848,518.044,210.403)">
			<stop offset="0" stop-color="#ffffff"/>
			<stop offset="1" stop-color="#b8d0f2"/>
		</linearGradient>
		<linearGradient id="g4" x2="1" gradientUnits="userSpaceOnUse" gradientTransform="matrix(-1.325,-40.869,20.841,-0.676,550.98,330.467)">
			<stop offset="0" stop-color="#ffffff"/>
			<stop offset="1" stop-color="#b8d0f2"/>
		</linearGradient>
		<linearGradient id="g5" x2="1" gradientUnits="userSpaceOnUse" gradientTransform="matrix(-739.122,127.435,-63.506,-368.336,641.68,553.495)">
			<stop offset="0" stop-color="#ffffff"/>
			<stop offset="1" stop-color="#b8d0f2"/>
		</linearGradient>
	</defs>
	<style>
		.s0 { opacity: .4;fill: #6aa8ce } 
		.s1 { fill: url(#g1) } 
		.s2 { fill: #212525 } 
		.s3 { fill: #1c1e1f } 
		.s4 { fill: #bfc5d6 } 
		.s5 { fill: #696e70 } 
		.s6 { fill: #2d313a } 
		.s7 { fill: #ffffff } 
		.s8 { fill: #9dd2f9 } 
		.s9 { fill: #aaaaaa } 
		.s10 { fill: #f2f2f2 } 
		.s11 { fill: #565b68 } 
		.s12 { opacity: .2;fill: #ffffff } 
		.s13 { fill: url(#g2) } 
		.s14 { fill: url(#g3) } 
		.s15 { fill: #5b3127 } 
		.s16 { fill: url(#g4) } 
		.s17 { fill: #f27281 } 
		.s18 { fill: #db455a } 
		.s19 { fill: #ffe888 } 
		.s20 { fill: #a2923c } 
		.s21 { fill: url(#g5) } 
		.s22 { fill: #2b3039 } 
	</style>
	<g id="OBJECTS">
		<g id="&lt;Group&gt;">
			<path id="&lt;Path&gt;" class="s0" d="m632.9 423l-267.1 154.2c0 0-30.9-4.2-38.9-4.2-6.5 0-229.5-85.3-314-117.7-12.2-4.7-12.9-21.6-1.2-27.3l331.2-161z"/>
			<g id="&lt;Group&gt;">
				<g id="&lt;Group&gt;">
					<path id="&lt;Path&gt;" class="s1" d="m293.3 385.6l69.3-37.3c-3.8 2-5.9 6.5-5.9 12.4 0 3.9 2.9 8.6 6.4 10.6l37.2 21.1c1.9 1.1 3.4 3.7 3.3 5.7 0 1-0.3 1.8-0.9 2.1l-67.9 37.2c0.7-0.4 1-1.1 1-2.1 0-2.1-1.6-4.6-3.5-5.7l-38.3-20.9c-3.6-2-6.6-6.7-6.6-10.6-0.1-5.9 2-10.4 5.9-12.5z"/>
					<g id="&lt;Group&gt;">
						<path id="&lt;Path&gt;" class="s2" d="m337.4 351.4l68.7-36.8 4.8 8.2-68.5 36.9z"/>
					</g>
					<g id="&lt;Group&gt;">
						<path id="&lt;Path&gt;" class="s3" d="m288.1 377.4l69.6-37.4 48.4-25.4-68.7 36.8z"/>
					</g>
					<path id="&lt;Path&gt;" class="s4" d="m337.4 351.4l5 8.3-49.1 25.9c-3.9 2.1-6 6.6-5.9 12.5 0 3.9 3 8.6 6.6 10.6l38.3 20.9c1.9 1.1 3.5 3.6 3.5 5.7 0 2-1.5 2.9-3.4 1.8l-38.3-20.7c-7.5-4.1-12.2-11.1-12.3-19.2-0.1-8 5.9-17 11-19.8z"/>
					<path id="&lt;Path&gt;" class="s5" d="m486.8 4.3l6.9 4.9c-2.4-1.7-5.7-1.8-9.3 0l-6.9-4.8c3.7-1.9 7-1.7 9.3-0.1z"/>
					<path id="&lt;Path&gt;" class="s6" d="m473.2 227.5l1.8-207.5 6.8 4.8-1.9 206.9-304.7 160.8-7.6-4.1z"/>
					<path id="&lt;Path&gt;" class="s4" d="m154.3 438.1l-0.9-23.3 7.7 4 0.8 23.2c0.1 4 1.8 6.8 4.3 8.1l-7.5-3.9c-2.6-1.3-4.2-4.1-4.4-8.2z"/>
					<path id="&lt;Path&gt;" class="s7" d="m161.1 418.8l333.5-176.8-0.2 22.8c-0.1 7.9-5.8 17.3-12.8 21.1l-114.8 61.3-71.1 38.1-119.6 63.9c-7.5 4.1-13.9 0.8-14.2-7.2z"/>
					<path id="&lt;Path&gt;" class="s8" d="m477.9 21.8l-1.9 207.3-305.2 160.9-8.3-210.5z"/>
					<g id="&lt;Group&gt;">
						<path id="&lt;Path&gt;" class="s9" d="m175.2 392.5l-7.6-4.1-8.4-210.7 7.9 4.7z"/>
					</g>
					<g id="&lt;Group&gt;">
						<path id="&lt;Path&gt;" class="s10" d="m167.1 182.4l-7.9-4.7 315.8-157.7 6.8 4.8z"/>
					</g>
					<path id="&lt;Path&gt;" class="s6" d="m143.9 186.6c-0.3-8.2 5.4-18.9 13.7-23l319.9-159.2c3.7-1.9 7-1.7 9.3-0.1l6.9 4.9c-2.4-1.7-5.7-1.8-9.3 0l-319 159.1c-7.5 3.7-13.9 14-13.6 22.9l8.5 209.2 0.8 18.5-7.7-4.1-0.7-18.4z"/>
					<path id="&lt;Compound Path&gt;" fill-rule="evenodd" class="s11" d="m484.4 9.2c7.2-3.6 13 0.4 12.9 9-2.6 224-2.6 221.1-2.7 223.8l-333.5 176.9-0.6-15.3-0.2-3.2-8.5-209.2c-0.3-8.7 5.8-19 13.6-22.9zm-4.5 222.5l2-206.9-314.8 157.6 8.1 210.1z"/>
				</g>
			</g>
			<g id="&lt;Group&gt;">
				<g id="&lt;Group&gt;">
					<path id="&lt;Path&gt;" class="s6" d="m326 679.6q0.2-0.6 0-1.2v-6.3l-13.2-2.6c-29.1-16.9-107.1-61.9-111.6-64.5-5.6-3.2-11.2 0-11.2 0 0 0-38.3 22.2-51.6 29.8l-6.5-1.2v6.3c-0.2 2.1 2.5 3.7 2.5 3.7 0 0 116.9 67.5 122.4 70.7 1.8 1 3.6 1.4 5.1 1.4 3.5 0.1 6.1-1.4 6.1-1.4l50.1-29c0 0 0 0 5.6-3.2 1.4-0.8 2.1-1.7 2.3-2.5z"/>
					<path id="&lt;Path&gt;" class="s11" d="m318.1 679l-50.1 28.9c0 0-5.6 3.2-11.2 0-5.5-3.2-122.4-70.7-122.4-70.7 0 0-5.6-3.2 0-6.4 5.5-3.2 55.6-32.2 55.6-32.2 0 0 5.6-3.2 11.2 0 5.6 3.2 122.4 70.7 122.4 70.7 0 0 5.6 3.3 0.1 6.5-5.6 3.2-5.6 3.2-5.6 3.2z"/>
					<path id="&lt;Path&gt;" class="s8" d="m301.3 663l-100.1-57.9-55.7 32.1 100.3 57.8z"/>
					<path id="&lt;Path&gt;" class="s7" d="m165 617.5c0 0.6 1.2 1.1 2.8 1.1 1.5 0 2.8-0.5 2.8-1.1 0-0.7-1.3-1.2-2.8-1.2-1.6 0-2.8 0.5-2.8 1.2z"/>
				</g>
				<path id="&lt;Path&gt;" class="s12" d="m199.4 597.8c-4.9-1.7-9.4 0.8-9.4 0.8 0 0-50.1 29-55.6 32.2-5.6 3.2 0 6.4 0 6.4 0 0 116.9 67.5 122.4 70.7 1.5 0.8 2.9 1.2 4.2 1.4-20-36.2-47.8-86.5-61.6-111.5z"/>
			</g>
			<g id="&lt;Group&gt;">
				<path id="&lt;Path&gt;" class="s0" d="m614.3 311.2c0 22-29.2 39.8-65.2 39.8-36.1 0-65.3-17.8-65.3-39.8 0-21.9 29.2-39.7 65.3-39.7 36 0 65.2 17.8 65.2 39.7z"/>
				<g id="&lt;Group&gt;">
					<g id="&lt;Group&gt;">
						<path id="&lt;Path&gt;" class="s13" d="m577.5 217.9l-59.5 19.9v74.8c0 15.2 20.2 27.5 45.1 27.5 24.8 0 45-12.3 45-27.5v-74.8z"/>
						<path id="&lt;Path&gt;" class="s14" d="m608.1 237.8c0 15.2-20.2 27.5-45 27.5-24.9 0-45.1-12.3-45.1-27.5 0-15.1 20.2-27.4 45.1-27.4 24.8 0 45 12.3 45 27.4z"/>
						<path id="&lt;Path&gt;" class="s15" d="m524.7 252.2c8 7.8 22.2 13.1 38.4 13.1 16.2 0 30.4-5.3 38.3-13.1q0.8-2.4 0.8-4.9c0-13.2-17.5-23.9-39.1-23.9-21.7 0-39.2 10.7-39.2 23.9q0 2.5 0.8 4.9z"/>
					</g>
					<path id="&lt;Compound Path&gt;" fill-rule="evenodd" class="s7" d="m608.1 237.8c0 15.2-20.2 27.5-45 27.5-24.9 0-45.1-12.3-45.1-27.5 0-15.1 20.2-27.4 45.1-27.4 24.8 0 45 12.3 45 27.4zm-86.9 0c0 13.2 19.2 24.3 41.9 24.3 22.7 0 41.8-11.1 41.8-24.3 0-13.1-19.1-24.2-41.8-24.2-22.7 0-41.9 11.1-41.9 24.2z"/>
					<g id="&lt;Group&gt;">
						<path id="&lt;Path&gt;" class="s16" d="m601.5 268.1l-1.7-1v0.1-0.1 0.1h-0.1-0.1v0.1-0.1 0.1h-0.1-0.1v0.1-0.1 0.1h-0.1v0.1l-0.1-0.1v0.1h-0.1v0.1l-0.1-0.1v0.1h-0.1v0.1-0.1 0.1h-0.1-0.1v0.1-0.1 0.1h-0.1v0.1l-0.1-0.1v0.1h-0.1v0.1l-0.1-0.1v0.1h-0.1v0.1-0.1 0.1h-0.1-0.1v0.1-0.1 0.1h-0.1-0.1v0.1-0.1 0.1h-0.1-0.1v0.1-0.1 0.1h-0.1v0.1l-0.1-0.1v0.1h-0.1v0.1-0.1 0.1h-0.1-0.1v0.1-0.1 0.1h-0.1v0.1l-0.1-0.1v0.1h-0.1v0.1l-0.1-0.1v0.1h-0.1v0.1-0.1 0.1h-0.1-0.1v0.1-0.1 0.1h-0.1-0.1v0.1-0.1 0.1h-0.1-0.1v0.1-0.1 0.1h-0.1v0.1l-0.1-0.1v0.1h-0.1v0.1-0.1 0.1h-0.1-0.1v0.1-0.1 0.1h-0.1-0.1v0.1-0.1 0.1h-0.1v0.1l-0.1-0.1v0.1h-0.1v0.1-0.1 0.1h-0.1-0.1v0.1-0.1 0.1h-0.1-0.1v0.1-0.1 0.1h-0.1-0.1v0.1-0.1 0.1h-0.1v0.1l-0.1-0.1v0.1h-0.1v0.1-0.1 0.1h-0.1-0.1v0.1-0.1 0.1h-0.1-0.1v0.1-0.1 0.1-0.1 0.1h-0.1v0.1l-0.1-0.1v0.1h-0.1v0.1-0.1 0.1h-0.1-0.1v0.1-0.1 0.1h-0.1-0.1v0.1-0.1 0.1h-0.1-0.1v0.1-0.1 0.1h-0.1v0.1l-0.1-0.1v0.1h-0.1v0.1-0.1 0.1h-0.1-0.1v0.1-0.1 0.1h-0.1-0.1v0.1-0.1 0.1h-0.1v7.6c7.7 5.1 12.3 13.8 12.3 23.1 0 2.9-1 5.7-2.8 7.8q-0.8 0.2-1.7 0.2 0 0 0 0 0 0 0 0 0 0-0.1 0 0 0 0 0 0 0 0 0 0 0 0 0v0.1q0 0-0.1 0 0 0 0 0 0 0 0 0 0 0 0 0 0 0-0.1 0 0 0 0 0 0 0 0 0v0.1q0 0 0 0-0.1 0-0.1 0 0 0 0 0 0 0 0 0 0 0 0 0-0.1 0-0.1 0 0 0 0 0v0.1q0 0 0 0 0 0 0 0-0.1 0-0.1 0 0 0 0 0 0 0 0 0 0 0-0.1 0 0 0 0 0v0.1q0 0 0 0 0 0 0 0 0 0-0.1 0 0 0 0 0 0 0 0 0 0 0 0 0 0 0-0.1 0v0.1q0 0 0 0 0 0 0 0 0 0 0 0 0 0-0.1 0 0 0 0 0 0 0 0 0v0.1q0 0 0 0-0.1 0-0.1 0 0 0 0 0 0 0 0 0 0 0 0 0-0.1 0-0.1 0 0 0 0 0v0.1q0 0 0 0 0 0 0 0-0.1 0-0.1 0 0 0 0 0 0 0 0 0 0 0 0 0-0.1 0-0.1 0v0.1q0 0 0 0 0 0 0 0 0 0-0.1 0 0 0 0 0 0 0 0 0 0 0 0 0 0 0-0.1 0v0.1q0 0 0 0 0 0 0 0 0 0 0 0 0 0-0.1 0 0 0 0 0 0 0 0 0 0 0 0 0v0.1q0 0-0.1 0 0 0 0 0 0 0 0 0 0 0 0 0-0.1 0-0.1 0 0 0 0 0 0 0 0 0v0.1q0 0 0 0-0.1 0-0.1 0 0 0 0 0 0 0 0 0 0 0 0 0-0.1 0-0.1 0 0 0 0 0v0.1q0 0 0 0 0 0-0.1 0 0 0 0 0 0 0 0 0 0 0 0 0 0 0-0.1 0 0 0 0 0v0.1q0 0 0 0 0 0 0 0 0 0-0.1 0 0 0 0 0 0 0 0 0 0 0 0 0 0 0-0.1 0v0.1q0 0 0 0 0 0 0 0 0 0 0 0-0.1 0-0.1 0 0 0 0 0 0 0 0 0 0 0 0 0.1-0.1 0-0.1 0 0 0 0 0 0 0 0 0 0 0 0 0-0.1 0-0.1 0 0 0 0 0v0.1q0 0 0 0 0 0 0 0-0.1 0-0.1 0 0 0 0 0 0 0 0 0 0 0-0.1 0 0 0 0 0v0.1q0 0 0 0 0 0 0 0 0 0-0.1 0 0 0 0 0 0 0 0 0 0 0 0 0 0 0-0.1 0v0.1q0 0 0 0 0 0 0 0 0 0 0 0 0 0-0.1 0 0 0 0 0 0 0 0 0 0 0 0 0v0.1q-0.1 0-0.1 0 0 0 0 0 0 0 0 0 0 0 0 0-0.1 0-0.1 0 0 0 0 0 0 0 0 0v0.1q0 0 0 0-0.1 0-0.1 0 0 0 0 0 0 0 0 0 0 0-0.1 0 0 0 0 0 0 0 0 0v0.1q0 0 0 0 0 0-0.1 0 0 0 0 0 0 0 0 0 0 0 0 0 0 0-0.1 0 0 0 0 0v0.1q0 0 0 0 0 0 0 0 0 0-0.1 0 0 0 0 0 0 0 0 0 0 0 0 0-0.1 0-0.1 0v0.1q0 0 0 0 0 0 0 0 0 0 0 0-0.1 0-0.1 0 0 0 0 0 0 0 0 0 0 0 0 0v0.1q-0.1 0-0.1 0 0 0 0 0 0 0 0 0 0 0 0 0-0.1 0-0.1 0 0 0 0 0 0 0.1 0 0.1 0 0-0.1 0 0 0 0 0 0 0 0 0 0 0 0 0 0 0-0.1 0 0 0 0 0v0.1q0 0 0 0 0 0 0 0 0 0-0.1 0 0 0 0 0 0 0 0 0 0 0 0 0 0 0-0.1 0v0.1q0 0 0 0 0 0 0 0 0 0 0 0-0.1 0-0.1 0 0 0 0 0 0 0 0 0 0 0 0 0v0.1q-0.1 0-0.1 0 0 0 0 0 0 0 0 0 0 0 0 0-0.1 0-0.1 0 0 0 0 0 0 0 0 0v0.1q0 0 0 0-0.1 0-0.1 0 0 0 0 0 0 0 0 0 0 0-0.1 0 0 0 0 0 0 0 0 0v0.1q0 0 0 0 0 0-0.1 0 0 0 0 0 0 0 0 0 0 0 0 0 0 0-0.1 0 0 0 0 0v0.1q0 0 0 0 0 0 0 0-0.1 0-0.1 0 0 0 0 0 0 0 0 0 0 0 0 0-0.1 0-0.1 0v0.1q0 0 0 0 0 0 0 0 0 0 0 0-0.1 0-0.1 0 0 0 0 0 0 0 0 0 0 0 0 0v0.1q-0.1 0-0.1 0 0 0 0 0 0 0 0 0 0 0-0.1 0 0 0 0 0 0 0 0 0 0 0 0 0v0.1q0 0-0.1 0 0 0 0 0 0 0 0 0 0 0 0 0 0 0-0.1 0 0 0 0 0v0.1q0 0 0 0 0 0 0 0 0 0-0.1 0 0 0 0 0 0 0 0 0 0 0 0 0-0.1 0-0.1 0v0.1q0 0 0 0 0 0 0 0 0 0 0 0-0.1 0-0.1 0 0 0 0 0 0 0 0 0 0 0 0 0v0.1q-0.1 0-0.1 0 0 0 0 0 0 0 0 0 0 0 0 0-0.1 0-0.1 0 0 0 0 0 0 0 0 0v0.1q0 0-0.1 0 0 0 0 0 0 0 0 0 0 0 0 0 0 0-0.1 0 0 0 0 0 0 0 0 0v0.1q0 0 0 0 0 0-0.1 0 0 0 0 0 0 0 0 0 0 0 0 0-0.1 0-0.1 0 0 0 0 0v0.1q0 0 0 0 0 0 0 0-0.1 0-0.1 0 0 0 0 0 0 0 0 0 0 0 0 0-0.1 0-0.1 0v0.1q0 0 0 0 0 0 0 0 0 0 0 0-0.1 0-0.1 0 0 0 0 0 0 0 0 0 0 0-0.1 0v0.1q0 0 0 0 0 0 0 0 0 0 0 0 0 0-0.1 0 0 0 0 0 0 0 0 0 0 0 0 0v0.1q0 0-0.1 0 0 0 0 0 0 0 0 0 0 0 0 0 0 0-0.1 0v6.6c3.3 0 6.5-0.9 9.5-2.6q0 0 0 0 0 0 0 0 0 0 0 0 0 0 0 0 0 0 0 0 0 0 0 0 0 0 0-0.1 0.1 0 0.1 0 0 0 0 0 0 0 0 0 0 0 0 0 0 0 0 0 0 0 0 0 0 0 0 0 0 0 0 0 0.1 0 0.1 0 0 0 0 0 0 0 0 0 0 0 0 0 0 0 0 0 0-0.1 0-0.1 0 0 0 0 0 0 0 0 0.1 0 0.1 0 0 0 0 0 0 0 0 0 0 0 0 0 0 0 0 0 0 0 0 0 0 0 0 0 0 0 0.1 0 0 0 0 0 0 0 0 0 0 0 0 0 0-0.1 0-0.1 0 0 0 0 0 0 0 0 0 0 0 0 0.1 0 0.1 0 0 0 0 0 0 0 0 0 0 0 0 0 0 0 0 0 0 0 0 0 0 0 0 0 0 0 0.1 0 0 0 0 0 0 0 0-0.1 0 0 0 0 0 0 0 0 0 0 0 0 0 0 0 0 0 0 0 0 0 0 0.1 0 0 0 0 0 0 0 0 0 0 0 0 0 0 0 0 0 0 0 0 0 0 0 0 0 0 0 0 0 0 0 0.1-0.1 0 0 0 0 0 0 0 0 0 0 0 0 0 0 0 0 0 0 0 0 0 0 0 0 0 0 0 0 0.1 0 0.1 0 0 0 0 0 0 0 0 0 0 0 0 0 0 0 0 0 0 0 0 0 0 0 0-0.1 0 0 0 0 0.1 0 0.1 0 0 0 0 0 0 0 0 0 0 0 0 0 0 0 0 0 0 0 0 0 0 0 0 0 0 0 0 0 0.1 0 0.1 0 0 0 0 0 0 0 0 0 0 0 0 0 0-0.1 0-0.1 0 0 0 0 0 0 0 0 0 0 0.1 0 0 0 0 0 0 0 0 0 0 0 0 0 0 0 0 0 0 0 0 0 0 0 0 0 0 0 0 0 0.1 0 0.1 0 0 0 0 0 0 0 0 0 0-0.1 0-0.1 0 0 0 0 0 0 0 0 0 0 0 0 0 0 0.1 0 0 0 0 0 0 0 0 0 0 0 0 0 0 0 0 0 0 0 0 0 0 0 0 0 0 0 0 0 0 0 0.1 0 0 0 0 0 0-0.1 0-0.1 0 0 0 0 0 0 0 0 0 0 0 0 0 0 0 0 0 0 0 0 0.1 0 0.1 0 0 0 0 0 0 0 0 0 0 0 0 0 0 0 0 0 0 0 0 0 0 0 0 0 0 0 0-0.1 0.1 0 0.1 0 0 0 0 0 0 0 0 0 0 0 0 0 0 0 0 0 0 0 0 0 0 0 0 0 0 0 0 0 0.1 0 0.1 0 0 0 0 0 0 0 0 0 0 0 0 0 0 0 0 0 0 0 0-0.1 0 0 0 0 0 0 0.1 0 0 0 0 0 0 0 0 0 0 0 0 0 0 0 0 0 0 0 0 0 0 0 0 0 0 0 0 0 0.1 0 0.1 0 0 0 0 0 0 0 0 0 0 0 0 0 0-0.1 0-0.1 0 0 0 0 0 0 0 0 0 0 0.1 0 0 0 0 0 0 0 0 0 0 0 0 0 0 0 0 0 0 0 0 0 0 0 0 0 0 0 0 0 0 0 0.1 0 0 0 0 0 0 0 0 0 0-0.1 0-0.1 0 0 0 0 0 0 0 0 0 0 0 0 0 0 0 0 0 0 0.1 0 0 0 0 0 0 0 0 0 0 0 0 0 0 0 0 0 0 0 0 0 0 0 0 0 0 0 0 0 0.1 0 0.1-0.1 0 0 0 0 0 0 0 0 0 0 0 0 0 0 0 0 0 0 0 0 0 0 0 0 0 0 0 0 0.1 0 0.1 0 0 0 0 0 0 0 0 0 0 0 0 0 0 0 0 0 0 0 0 0 0 0 0-0.1 0 0 0 0 0.1 0 0.1 0 0 0 0 0 0 0 0 0 0 0 0 0 0 0 0 0 0 0 0 0 0 0 0 0 0 0 0.1 0 0 0 0 0 0 0 0 0 0 0 0 0 0 0 0 0 0 0 0-0.1 0 0 0 0 0 0 0 0 0.1 0 0.1 0 0 0 0 0 0 0 0 0 0 0 0 0 0 0 0 0 0 0 0 0 0 0 0 0 0 0 0.1 0 0 0 0 0 0 0 0 0 0 0 0 0 0-0.1 0-0.1 0 0 0 0 0 0 0 0 0 0 0 0 0 0 0.1 0 0 0 0 0 0 0 0 0 0 0 0 0 0 0 0 0 0 0 0 0 0 0 0 0 0 0 0 0 0.1 0 0.1 0 0 0 0 0 0-0.1 0-0.1 0 0 0 0 0 0 0 0 0 0 0 0 0 0 0 0 0 0 0 0 0.1 0 0.1 0 0 0 0 0 0 0 0 0 0 0 0 0 0 0 0 0 0 0 0 0 0 0 0 0 0 0 0 0 0.1-0.1 0.1-0.1 0 0 0 0 0 0 0 0 0 0 0 0 0 0 0 0 0 0 0 0 0 0 0 0 0 0 0.1 0 0 0 0 0 0 0 0 0 0 0 0 0 0 0 0 0 0 0 0 0 0 0 0-0.1 0 0 0 0 0.1 0 0.1 0 0 0 0 0 0 0 0 0 0 0 0 0 0 0 0 0 0 0 0 0 0 0 0 0 0 0 0.1 0 0 0 0 0 0 0 0 0 0 0 0 0 0 0 0 0 0 0 0-0.1 0 0 0 0 0 0 0 0 0 0 0.1 0 0 0 0 0 0 0 0 0 0 0 0 0 0 0 0 0 0 0 0 0 0 0 0 0 0 0 0 0 0 0 0.1 0 0 0 0 0 0 0 0 0 0-0.1 0-0.1 0 0 0 0 0 0 0 0 0 0 0 0 0 0 0 0 0.1 0 0.1 0 0 0 0 0 0 0 0 0 0 0 0 0 0 0 0 0 0 0 0 0 0 0 0 0 0 0 0 0 0.1 0 0.1-0.1 0 0 0 0 0 0 0 0 0 0 0 0 0 0 0 0 0 0 0 0 0 0 0 0 0 0 0 0 0.1 0 0.1 0 0 0 0 0 0 0 0 0 0 0 0 0 0 0 0 0 0 0 0 0 0 0 0-0.1 0 0 0.1 0 0 0 0 0 0 0 0 0 0 0 0 0 0 0 0 0 0 0 0 0 0 0 0 0 0 0 0 0 0.1 0 0.1 0 0 0 0 0 0 0 0 0 0 0 0 0 0 0 0 0 0 0 0-0.1 0 0 0 0 0 0 0.1 0 0 0 0 0 0 0 0 0 0 0 0 0 0 0 0 0 0 0 0 0 0 0 0 0 0 0 0 0 0 0 0.1 0 0 0 0 0 0 0 0 0 0 0 0 0 0 0 0-0.1 0 0 0 0 0 0 0 0 0 0 0 0 0 0 0.1 0 0 0 0 0 0 0 0 0 0 0 0 0 0 0 0 0 0 0 0 0 0 0 0 0 0 0 0 0 0.1 0 0.1 0 0 0 0 0 0-0.1 0-0.1 0 0 0 0 0 0 0 0 0 0 0 0 0 0 0 0 0 0 0 0 0.1 0 0.1 0 0 0 0 0 0 0 0 0 0 0 0 0 0 0 0 0 0 0 0 0 0 0 0 0 0 0 0.1 0 0-0.1 0-0.1 0 0 0 0 0 0 0 0 0 0 0 0 0 0 0 0 0 0 0 0 0 0 0 0 0.1 0 0.1 0 0 0 0 0 0 0 0 0 0 0 0 0 0 0 0 0 0 0 0 0 0 0 0 0 0-0.1 0.1-0.1 0 0 0 0 0 0 0 0 0 0 0 0 0 0 0 0 0 0 0 0 0 0 0 0 0 0 0 0 0 0 0.1 0 0 0 0 0 0 0 0 0 0 0 0 0 0 0 0 0 0 0 0-0.1 0 0 0 0 0 0 0 0 0 0 0.1 0 0 0 0 0 0 0 0 0 0 0 0 0 0 0 0 0 0 0 0 0 0 0 0 0 0 0 0 0 0.1 0 0.1 0 0 0 0 0 0 0 0 0 0 0 0-0.1 0 0 0 0 0 0 0 0 0 0 0 0 0 0 0 0 0.1 0 0.1 0 0 0 0 0 0 0 0 0 0 0 0 0 0 0 0 0 0 0 0 0 0 0 0 0 0 0 0 0 0.1 0 0.1 0 0-0.1 0-0.1 0 0 0 0 0 0 0 0 0 0 0 0 0 0 0 0 0 0 0 0 0 0 0.1 0 0 0 0 0 0 0 0 0 0 0 0 0 0 0 0 0 0 0 0 0 0 0 0 0 0 0 0-0.1 0.1 0 0.1 0 0 0 0 0 0 0 0 0 0 0 0 0 0 0 0 0 0 0 0 0 0 0 0 0 0 0 0.1 0 0 0 0 0 0 0 0 0 0 0 0 0 0 0 0 0 0 0 0 0 0 0 0-0.1 0 0 0 0 0 0 0.1 0 0 0 0 0 0 0 0 0 0 0 0 0 0 0 0 0 0 0 0 0 0 0 0 0 0 0 0 0 0 0 0.1 0 0 0 0 0 0 0 0 0 0 0 0 0 0 0 0-0.1 0 0 0 0 0 0 0 0 0 0 0 0 0.1 0 0.1 0 0 0 0 0 0 0 0 0 0 0 0 0 0 0 0 0 0 0 0 0 0 0 0 0 0 0 0 0 0.1 0 0.1 0 0 0 0 0 0 0 0-0.1 0 0 0 0 0 0 0 0 0 0 0 0 0 0 0 0 0 0 0.1 0 0 0 0 0 0 0 0 0 0 0 0 0 0 0 0 0 0 0 0 0 0 0 0 0 0 0 0 0 0.1 0 0.1 0 0-0.1 0-0.1 0 0 0 0 0 0 0 0 0 0 0 0 0 0 0 0 0 0 0 0 0 0 0.1 0 0 0 0 0 0 0 0 0 0 0 0 0 0 0 0 0 0 0 0 0 0 0 0 0 0 0 0 0 0-0.1 0.1-0.1 0 0 0 0 0 0 0 0 0 0 0 0 0 0 0 0 0 0 0 0 0 0 0 0 0 0 0 0 0 0 0.1 0 0 0 0 0 0 0 0 0 0 0 0 0 0 0 0 0 0 0 0 0 0-0.1 0-0.1 0 0 0 0 0.1 0 0.1 0 0 0 0 0 0 0 0 0 0 0 0 0 0 0 0 0 0 0 0 0 0 0 0 0 0 0 0 0 0.1 0 0.1 0 0 0 0 0 0 0 0 0 0 0 0-0.1 0 0 0 0 0 0 0 0 0 0 0 0 0 0 0 0 0.1 0 0.1 0 0 0 0 0 0 0 0 0 0 0 0 0 0 0 0 0 0 0 0 0 0 0 0 0 0 0 0.1 0 0 0 0 0 0-0.1 0-0.1 0 0 0 0 0 0 0 0 0 0 0 0 0 0 0 0 0 0 0 0 0.1 0 0.1 0 0 0 0 0 0 0 0 0 0 0 0 0 0 0 0 0 0 0 0 0 0 0 0 0 0 0 0.1 0 0-0.1 0-0.1 0 0 0 0 0 0 0 0 0 0 0 0 0 0 0 0 0 0 0 0 0 0 0 0 0 0 0.1 0 0 0 0 0 0 0 0 0 0 0 0 0 0 0 0 0 0 0 0 0 0 0 0-0.1 0 0 0 0 0 0 0.1 0 0 0 0 0 0 0 0 0 0 0 0 0 0 0 0 0 0 0 0 0 0 0 0 0 0 0 0 0 0.1 0 0.1 0 0 0 0 0 0 0 0 0 0 0 0 0 0 0 0-0.1 0 0 0 0 0 0 0 0c5.9-3.4 9.4-9.5 9.4-16.3 0-12.2-6.5-23.6-17.1-29.7z"/>
						<path id="&lt;Path&gt;" class="s7" d="m593.7 272.4l-1.7-0.9v7.6c7.7 5.1 12.3 13.8 12.3 23.1 0 4.4-2.3 8.4-6.1 10.6-1.9 1.2-4 1.7-6.2 1.7v6.6c3.3 0 6.5-0.9 9.5-2.6 5.8-3.4 9.4-9.5 9.4-16.3 0-12.3-6.6-23.7-17.2-29.8z"/>
					</g>
				</g>
			</g>
			<g id="&lt;Group&gt;">
				<path id="&lt;Path&gt;" class="s17" d="m294.9 635.9l54.7-31.6 47.9 27.6-48.1 27.8-13.5-0.1z"/>
				<path id="&lt;Path&gt;" class="s18" d="m342.8 651.8l-6.9 7.8 13.5 0.1z"/>
			</g>
			<g id="&lt;Group&gt;">
				<path id="&lt;Path&gt;" class="s19" d="m313.1 586l-54.7-31.5-47.9 27.6 48.1 27.8 13.5-0.1z"/>
				<path id="&lt;Path&gt;" class="s20" d="m265.2 602l6.9 7.8-13.5 0.1z"/>
			</g>
			<g id="&lt;Group&gt;">
				<path id="&lt;Path&gt;" class="s4" d="m633.9 421.3c0-0.7-0.3-1.4-1-1.8l-120-69.2c-3.1-1.8-6.9-1.8-9.9 0l-263.2 151.9c-0.6 0.4-1 1.1-1 1.8q0 0 0 0.1 0 0 0 0 0 0.1 0 0.1 0 0 0 0.1 0 0 0 0 0 0 0 0.1 0 0 0 0 0 0.1 0 0.1 0 0 0 0.1 0 0 0 0 0 0.1 0 0.1 0 0 0 0.1 0 0 0 0 0 0.1 0 0.1 0 0 0 0 0 0.1 0 0.1 0 0 0 0.1 0 0 0 0 0 0.1 0 0.1 0 0 0 0.1 0 0 0 0 0 0.1 0 0.1 0 0 0 0.1 0 0 0 0 0 0.1 0 0.1 0 0 0 0 0 0.1 0 0.1 0 0 0 0.1 0 0 0 0 0 0.1 0 0.1 0 0 0 0.1 0 0 0 0 0 0.1 0 0.1 0 0 0 0.1 0 0 0 0 0 0.1 0 0.1 0 0 0 0 0 0.1 0 0.1 0 0 0 0.1 0 0 0 0 0 0.1 0 0.1 0 0 0 0.1 0 0 0 0 0 0.1 0 0.1 0 0 0 0.1 0 0 0 0 0 0 0 0.1 0 0 0 0 0 0.1 0 0.1 0 0 0 0.1 0 0 0 0 0 0.1 0 0.1 0 0 0 0.1 0 0 0 0 0 0.1 0 0.1 0 0 0 0.1 0 0 0 0 0 0 0 0.1 0 0 0 0 0 0.1 0 0.1 0 0 0 0.1 0 0 0 0c0 0.7 0.4 1.4 1 1.8l124 71.5c0.6 0.4 1.4 0.4 2 0l267.1-154.2c0.7-0.4 1-1.1 1-1.8q0 0 0 0 0 0 0-0.1 0 0 0 0 0-0.1 0-0.1 0 0 0-0.1 0 0 0 0 0-0.1 0-0.1 0 0 0-0.1 0 0 0 0 0-0.1 0-0.1 0 0 0-0.1 0 0 0 0 0 0 0-0.1 0 0 0 0 0-0.1 0-0.1 0 0 0-0.1 0 0 0 0 0-0.1 0-0.1 0 0 0-0.1 0 0 0 0 0-0.1 0-0.1 0 0 0-0.1 0 0 0 0 0 0 0-0.1 0 0 0 0 0-0.1 0-0.1 0 0 0-0.1 0 0 0 0 0-0.1 0-0.1 0 0 0-0.1 0 0 0 0 0-0.1 0-0.1 0 0 0 0 0-0.1 0-0.1 0 0 0-0.1 0 0 0 0 0-0.1 0-0.1 0 0 0-0.1 0 0 0 0 0-0.1 0-0.1 0 0 0-0.1 0 0 0 0 0-0.1 0-0.1 0 0 0 0 0-0.1 0-0.1 0 0 0-0.1 0 0 0 0 0-0.1 0-0.1 0 0 0-0.1 0 0 0 0 0-0.1 0-0.1 0 0 0-0.1 0 0 0 0 0-0.1 0-0.1 0 0 0 0 0-0.1 0-0.1 0 0 0-0.1 0 0 0 0 0-0.1 0-0.1 0 0 0-0.1 0 0 0 0 0-0.1 0-0.1z"/>
				<path id="&lt;Path&gt;" class="s21" d="m239.8 502.2l263.2-151.9c3-1.8 6.8-1.8 9.9 0l120 69.2c1.3 0.8 1.3 2.7 0 3.5l-267.1 154.2c-0.6 0.4-1.4 0.4-2 0l-124-71.5c-1.3-0.8-1.3-2.7 0-3.5z"/>
				<g id="&lt;Group&gt;">
					<path id="&lt;Path&gt;" class="s11" d="m268.4 501.9l19.7-11.4c0.7-0.4 1.5-0.4 2.1 0l3.4 1.9c1.4 0.8 1.4 2.9 0 3.7l-19.7 11.4c-0.7 0.4-1.5 0.4-2.2 0l-3.3-1.9c-1.4-0.9-1.4-2.9 0-3.7z"/>
					<path id="&lt;Path&gt;" class="s11" d="m295.9 485.9l19.7-11.3c0.6-0.4 1.5-0.4 2.1 0l3.3 1.9c1.5 0.8 1.5 2.9 0.1 3.7l-19.8 11.4c-0.6 0.4-1.4 0.4-2.1 0l-3.4-2c-1.4-0.8-1.4-2.8 0.1-3.7z"/>
					<path id="&lt;Path&gt;" class="s11" d="m323.3 470l19.8-11.4c0.6-0.3 1.4-0.3 2.1 0l3.3 2c1.4 0.8 1.4 2.8 0 3.6l-19.7 11.5c-0.7 0.3-1.5 0.3-2.1-0.1l-3.4-1.9c-1.4-0.8-1.4-2.9 0-3.7z"/>
					<path id="&lt;Path&gt;" class="s11" d="m350.8 454.1l19.7-11.4c0.7-0.4 1.5-0.4 2.1 0l3.4 1.9c1.4 0.8 1.4 2.9 0 3.7l-19.7 11.4c-0.7 0.4-1.5 0.4-2.2 0l-3.3-2c-1.4-0.8-1.4-2.8 0-3.6z"/>
					<path id="&lt;Path&gt;" class="s11" d="m378.3 438.1l19.7-11.3c0.7-0.4 1.5-0.4 2.1 0l3.4 1.9c1.4 0.8 1.4 2.8 0 3.7l-19.8 11.4c-0.6 0.4-1.4 0.4-2.1 0l-3.4-2c-1.4-0.8-1.4-2.9 0.1-3.7z"/>
					<path id="&lt;Path&gt;" class="s11" d="m405.7 422.2l19.8-11.4c0.6-0.3 1.4-0.3 2.1 0l3.3 2c1.4 0.8 1.4 2.8 0 3.6l-19.7 11.4c-0.6 0.4-1.5 0.4-2.1 0l-3.4-1.9c-1.4-0.9-1.4-2.9 0-3.7z"/>
					<path id="&lt;Path&gt;" class="s11" d="m433.2 406.3l19.7-11.4c0.7-0.4 1.5-0.4 2.1 0l3.4 1.9c1.4 0.8 1.4 2.9 0 3.7l-19.7 11.4c-0.7 0.4-1.5 0.4-2.2 0l-3.3-2c-1.4-0.8-1.4-2.8 0-3.6z"/>
					<path id="&lt;Path&gt;" class="s11" d="m460.7 390.3l19.7-11.3c0.7-0.4 1.5-0.4 2.1 0l3.4 1.9c1.4 0.8 1.4 2.8 0 3.7l-19.8 11.4c-0.6 0.4-1.4 0.4-2.1 0l-3.4-2c-1.4-0.8-1.4-2.9 0.1-3.7z"/>
					<path id="&lt;Path&gt;" class="s11" d="m488.1 374.4l19.8-11.4c0.6-0.3 1.4-0.3 2.1 0l3.3 1.9c1.4 0.9 1.4 2.9 0 3.7l-19.7 11.4c-0.6 0.4-1.5 0.4-2.1 0l-3.4-1.9c-1.4-0.9-1.4-2.9 0-3.7z"/>
					<path id="&lt;Path&gt;" class="s11" d="m282.6 510.5l10.3-6c0.6-0.3 1.4-0.3 2 0l10.2 6c1.3 0.8 1.3 2.7 0 3.5l-10.3 5.9c-0.6 0.3-1.3 0.3-2 0l-10.2-6c-1.3-0.7-1.3-2.7 0-3.4z"/>
					<path id="&lt;Path&gt;" class="s11" d="m304 498.1l10.3-5.9c0.6-0.3 1.3-0.3 2 0l10.2 6c1.3 0.7 1.3 2.6 0 3.4l-10.3 5.9c-0.6 0.4-1.4 0.4-2 0l-10.2-5.9c-1.4-0.8-1.3-2.7 0-3.5z"/>
					<path id="&lt;Path&gt;" class="s11" d="m325.4 485.8l10.2-5.9c0.7-0.4 1.4-0.4 2 0l10.3 5.9c1.3 0.8 1.3 2.7 0 3.5l-10.3 5.9c-0.6 0.4-1.4 0.4-2 0l-10.2-5.9c-1.4-0.8-1.4-2.7 0-3.5z"/>
					<path id="&lt;Path&gt;" class="s11" d="m346.8 473.5l10.2-6c0.6-0.3 1.4-0.3 2 0l10.3 6c1.3 0.8 1.3 2.7 0 3.4l-10.3 6c-0.6 0.3-1.4 0.3-2 0l-10.2-6c-1.4-0.7-1.4-2.7 0-3.4z"/>
					<path id="&lt;Path&gt;" class="s11" d="m368.1 461.1l10.3-5.9c0.6-0.4 1.4-0.4 2 0l10.3 5.9c1.3 0.8 1.3 2.7 0 3.5l-10.3 5.9c-0.6 0.4-1.4 0.4-2 0l-10.3-5.9c-1.3-0.8-1.3-2.7 0-3.5z"/>
					<path id="&lt;Path&gt;" class="s11" d="m389.5 448.8l10.3-5.9c0.6-0.4 1.4-0.4 2 0l10.3 5.9c1.3 0.8 1.3 2.7-0.1 3.5l-10.2 5.9c-0.6 0.4-1.4 0.4-2 0l-10.3-5.9c-1.3-0.8-1.3-2.7 0-3.5z"/>
					<path id="&lt;Path&gt;" class="s11" d="m410.9 436.5l10.3-6c0.6-0.3 1.4-0.3 2 0l10.2 6c1.4 0.7 1.4 2.7 0 3.4l-10.2 6c-0.7 0.3-1.4 0.3-2 0l-10.3-6c-1.3-0.8-1.3-2.7 0-3.4z"/>
					<path id="&lt;Path&gt;" class="s11" d="m432.3 424.1l10.3-5.9c0.6-0.4 1.4-0.4 2 0l10.2 5.9c1.4 0.8 1.4 2.7 0 3.5l-10.3 5.9c-0.6 0.4-1.3 0.4-2 0l-10.2-5.9c-1.3-0.8-1.3-2.7 0-3.5z"/>
					<path id="&lt;Path&gt;" class="s11" d="m453.7 411.8l10.3-5.9c0.6-0.4 1.3-0.4 2 0l10.2 5.9c1.3 0.8 1.3 2.7 0 3.5l-10.3 5.9c-0.6 0.3-1.3 0.3-2 0l-10.2-6c-1.3-0.7-1.3-2.6 0-3.4z"/>
					<path id="&lt;Path&gt;" class="s11" d="m475.1 399.4l10.3-5.9c0.6-0.3 1.3-0.3 2 0l10.2 6c1.3 0.7 1.3 2.7 0 3.4l-10.3 6c-0.6 0.3-1.4 0.3-2 0l-10.2-6c-1.4-0.8-1.4-2.7 0-3.5z"/>
					<path id="&lt;Path&gt;" class="s11" d="m303.9 522.8l31.7-18.3c0.6-0.3 1.4-0.3 2 0.1l10.2 5.9c1.3 0.8 1.3 2.7 0 3.5l-31.6 18.2c-0.7 0.4-1.4 0.4-2.1 0l-10.2-5.9c-1.3-0.8-1.3-2.7 0-3.5z"/>
					<path id="&lt;Path&gt;" class="s11" d="m346.7 498.1l10.3-5.9c0.6-0.3 1.3-0.3 2 0l10.2 6c1.3 0.7 1.3 2.6 0 3.4l-10.3 5.9c-0.6 0.4-1.4 0.4-2 0l-10.2-5.9c-1.4-0.8-1.4-2.7 0-3.5z"/>
					<path id="&lt;Path&gt;" class="s11" d="m368.1 485.8l10.2-5.9c0.7-0.4 1.4-0.4 2 0l10.3 5.9c1.3 0.8 1.3 2.7 0 3.5l-10.3 5.9c-0.6 0.4-1.4 0.4-2 0l-10.2-5.9c-1.4-0.8-1.4-2.7 0-3.5z"/>
					<path id="&lt;Path&gt;" class="s11" d="m389.5 473.5l10.2-6c0.6-0.3 1.4-0.3 2 0l10.3 6c1.3 0.8 1.3 2.7 0 3.4l-10.3 6c-0.6 0.3-1.4 0.3-2 0l-10.2-6c-1.4-0.7-1.4-2.7 0-3.4z"/>
					<path id="&lt;Path&gt;" class="s11" d="m410.8 461.1l10.3-5.9c0.6-0.4 1.4-0.4 2 0l10.3 5.9c1.3 0.8 1.3 2.7 0 3.5l-10.3 5.9c-0.6 0.4-1.4 0.4-2 0l-10.3-5.9c-1.3-0.8-1.3-2.7 0-3.5z"/>
					<path id="&lt;Path&gt;" class="s11" d="m432.2 448.8l10.3-5.9c0.6-0.4 1.4-0.4 2 0l10.3 5.9c1.3 0.8 1.3 2.7-0.1 3.5l-10.2 5.9c-0.6 0.4-1.4 0.4-2 0l-10.3-5.9c-1.3-0.8-1.3-2.7 0-3.5z"/>
					<path id="&lt;Path&gt;" class="s11" d="m453.6 436.5l10.3-6c0.6-0.3 1.4-0.3 2 0l10.2 6c1.4 0.7 1.4 2.7 0 3.4l-10.2 6c-0.7 0.3-1.4 0.3-2 0l-10.3-6c-1.3-0.8-1.3-2.7 0-3.4z"/>
					<path id="&lt;Path&gt;" class="s11" d="m475 424.1l10.3-5.9c0.6-0.4 1.4-0.4 2 0l10.2 5.9c1.4 0.8 1.4 2.7 0 3.5l-10.3 5.9c-0.6 0.4-1.3 0.4-2 0l-10.2-5.9c-1.3-0.8-1.3-2.7 0-3.5z"/>
					<path id="&lt;Path&gt;" class="s11" d="m496.4 411.8l10.3-5.9c0.6-0.4 1.3-0.4 2 0l10.2 5.9c1.3 0.8 1.3 2.7 0 3.5l-10.3 5.9c-0.6 0.4-1.3 0.3-2 0l-10.2-6c-1.3-0.7-1.3-2.6 0-3.4z"/>
					<path id="&lt;Path&gt;" class="s11" d="m517.7 399.4l8.3-4.8c0.6-0.3 1.3-0.3 2 0l10.2 6c1.4 0.7 1.4 2.7 0 3.4l-8.2 4.8c-0.6 0.4-1.4 0.4-2 0l-10.2-5.9c-1.4-0.8-1.4-2.7-0.1-3.5z"/>
					<path id="&lt;Path&gt;" class="s11" d="m325.2 535.2l10.3-6c0.6-0.3 1.4-0.3 2 0l10.2 6c1.4 0.7 1.4 2.7 0 3.4l-10.2 6c-0.7 0.3-1.4 0.3-2 0l-10.3-6c-1.3-0.8-1.3-2.7 0-3.4z"/>
					<path id="&lt;Path&gt;" class="s11" d="m346.6 522.8l10.3-5.9c0.6-0.4 1.4-0.4 2 0l10.2 5.9c1.4 0.8 1.4 2.7 0 3.5l-10.2 5.9c-0.7 0.4-1.4 0.4-2.1 0l-10.2-5.9c-1.3-0.8-1.3-2.7 0-3.5z"/>
					<path id="&lt;Path&gt;" class="s11" d="m368 510.5l10.3-5.9c0.6-0.4 1.4-0.4 2 0l10.2 5.9c1.3 0.8 1.3 2.7 0 3.5l-10.3 5.9c-0.6 0.3-1.3 0.3-2 0l-10.2-6c-1.3-0.7-1.3-2.6 0-3.4z"/>
					<path id="&lt;Path&gt;" class="s11" d="m389.4 498.1l10.3-5.9c0.6-0.3 1.3-0.3 2 0l10.2 6c1.3 0.7 1.3 2.7 0 3.4l-10.3 6c-0.6 0.3-1.4 0.3-2-0.1l-10.2-5.9c-1.4-0.8-1.4-2.7 0-3.5z"/>
					<path id="&lt;Path&gt;" class="s11" d="m410.8 485.8l10.2-5.9c0.7-0.4 1.4-0.4 2 0l10.3 5.9c1.3 0.8 1.3 2.7 0 3.5l-10.3 5.9c-0.6 0.4-1.4 0.4-2 0l-10.2-5.9c-1.4-0.8-1.4-2.7 0-3.5z"/>
					<path id="&lt;Path&gt;" class="s11" d="m432.2 473.5l10.2-6c0.6-0.3 1.4-0.3 2 0l10.3 6c1.3 0.8 1.3 2.7 0 3.4l-10.3 6c-0.6 0.3-1.4 0.3-2 0l-10.2-6c-1.4-0.7-1.4-2.7 0-3.4z"/>
					<path id="&lt;Path&gt;" class="s11" d="m453.5 461.1l10.3-5.9c0.6-0.4 1.4-0.4 2 0l10.3 5.9c1.3 0.8 1.3 2.7 0 3.5l-10.3 5.9c-0.6 0.4-1.4 0.4-2 0l-10.3-5.9c-1.3-0.8-1.3-2.7 0-3.5z"/>
					<path id="&lt;Path&gt;" class="s11" d="m474.9 448.8l10.3-5.9c0.6-0.4 1.4-0.4 2 0l10.3 5.9c1.3 0.8 1.3 2.7-0.1 3.5l-10.2 5.9c-0.6 0.4-1.4 0.4-2 0l-10.3-5.9c-1.3-0.8-1.3-2.7 0-3.5z"/>
					<path id="&lt;Path&gt;" class="s11" d="m496.3 436.5l10.3-6c0.6-0.3 1.4-0.3 2 0l10.2 6c1.4 0.7 1.4 2.7 0 3.4l-10.2 6c-0.7 0.3-1.4 0.3-2 0l-10.3-6c-1.3-0.7-1.3-2.7 0-3.4z"/>
					<path id="&lt;Path&gt;" class="s11" d="m517.7 424.1l10.3-5.9c0.6-0.4 1.4-0.4 2 0l10.2 5.9c1.4 0.8 1.4 2.7 0 3.5l-10.3 5.9c-0.6 0.4-1.3 0.4-2 0l-10.2-5.9c-1.3-0.8-1.3-2.7 0-3.5z"/>
					<path id="&lt;Path&gt;" class="s11" d="m539.1 411.8l24.7-14.4c0.6-0.3 1.4-0.3 2 0l10.2 6c1.4 0.8 1.4 2.7 0 3.5l-24.7 14.3c-0.6 0.4-1.4 0.4-2 0l-10.2-6c-1.4-0.7-1.4-2.6 0-3.4z"/>
					<path id="&lt;Path&gt;" class="s11" d="m346.5 547.5l10.3-5.9c0.6-0.4 1.4-0.4 2 0l10.3 5.9c1.3 0.8 1.3 2.7-0.1 3.5l-10.2 5.9c-0.6 0.4-1.4 0.4-2 0l-10.3-5.9c-1.3-0.8-1.3-2.7 0-3.5z"/>
					<path id="&lt;Path&gt;" class="s11" d="m367.9 535.2l10.3-6c0.6-0.3 1.4-0.3 2 0l10.2 6c1.4 0.7 1.4 2.7 0 3.4l-10.2 6c-0.7 0.3-1.4 0.3-2 0l-10.3-6c-1.3-0.8-1.3-2.7 0-3.4z"/>
					<path id="&lt;Path&gt;" class="s11" d="m389.3 522.8l10.3-5.9c0.6-0.4 1.4-0.4 2 0l10.2 5.9c1.4 0.8 1.4 2.7 0 3.5l-10.3 5.9c-0.6 0.4-1.3 0.4-2 0l-10.2-5.9c-1.3-0.8-1.3-2.7 0-3.5z"/>
					<path id="&lt;Path&gt;" class="s11" d="m410.7 510.5l117.6-67.6c0.6-0.4 1.4-0.4 2 0l10.2 5.9c1.4 0.8 1.3 2.7 0 3.5l-117.6 67.6c-0.6 0.3-1.3 0.3-2 0l-10.2-6c-1.3-0.7-1.3-2.6 0-3.4z"/>
					<path id="&lt;Path&gt;" class="s11" d="m537.1 438.4l10.2-6c0.7-0.3 1.4-0.3 2 0l10.3 6c1.3 0.8 1.3 2.7 0 3.4l-10.3 6c-0.6 0.3-1.4 0.3-2 0l-10.2-6c-1.4-0.7-1.4-2.7 0-3.4z"/>
					<path id="&lt;Path&gt;" class="s11" d="m556.5 427l10.3-6c0.6-0.3 1.4-0.3 2 0l10.3 6c1.3 0.8 1.3 2.7 0 3.5l-10.3 5.9c-0.6 0.3-1.4 0.3-2 0l-10.3-6c-1.3-0.7-1.3-2.7 0-3.4z"/>
					<path id="&lt;Path&gt;" class="s11" d="m574.7 415.9l10.3-5.9c0.6-0.3 1.4-0.3 2 0l10.3 6c1.3 0.7 1.3 2.6 0 3.4l-10.3 5.9c-0.6 0.4-1.4 0.4-2 0l-10.3-5.9c-1.3-0.8-1.3-2.7 0-3.5z"/>
					<path id="&lt;Path&gt;" class="s11" d="m555.3 394.7c1.3-0.8 1.3-2.7 0-3.4l-18.9-10.9-13.2-7.6c-0.7-0.4-1.4-0.4-2 0l-24.7 14.3c-1.4 0.8-1.4 2.7 0 3.5l10.2 5.9c0.6 0.4 1.4 0.4 2 0l16.4-9.5c0.6-0.3 1.3-0.3 2 0l20.2 11.4c0.6 0.3 1.4 0.3 2-0.1z"/>
				</g>
				<g id="&lt;Group&gt;">
					<path id="&lt;Path&gt;" class="s11" d="m268.4 500.8l19.7-11.3c0.7-0.4 1.5-0.4 2.1 0l3.4 1.9c1.4 0.8 1.4 2.8 0 3.7l-19.7 11.4c-0.7 0.3-1.5 0.3-2.2 0l-3.3-2c-1.4-0.8-1.4-2.9 0-3.7z"/>
					<path id="&lt;Path&gt;" class="s11" d="m295.9 484.9l19.7-11.4c0.6-0.4 1.5-0.4 2.1 0l3.3 1.9c1.5 0.8 1.5 2.9 0.1 3.7l-19.8 11.4c-0.6 0.4-1.4 0.4-2.1 0l-3.4-1.9c-1.4-0.9-1.4-2.9 0.1-3.7z"/>
					<path id="&lt;Path&gt;" class="s11" d="m323.3 468.9l19.8-11.3c0.6-0.4 1.4-0.4 2.1 0l3.3 1.9c1.4 0.8 1.4 2.9 0 3.7l-19.7 11.4c-0.7 0.4-1.5 0.4-2.1 0l-3.4-2c-1.4-0.8-1.4-2.8 0-3.7z"/>
					<path id="&lt;Path&gt;" class="s11" d="m350.8 453l19.7-11.4c0.7-0.3 1.5-0.3 2.1 0l3.4 2c1.4 0.8 1.4 2.8 0 3.6l-19.7 11.5c-0.7 0.3-1.5 0.3-2.2-0.1l-3.3-1.9c-1.4-0.8-1.4-2.9 0-3.7z"/>
					<path id="&lt;Path&gt;" class="s11" d="m378.3 437.1l19.7-11.4c0.7-0.4 1.5-0.4 2.1 0l3.4 1.9c1.4 0.8 1.4 2.9 0 3.7l-19.8 11.4c-0.6 0.4-1.4 0.4-2.1 0l-3.4-2c-1.4-0.8-1.4-2.8 0.1-3.6z"/>
					<path id="&lt;Path&gt;" class="s11" d="m405.7 421.1l19.8-11.3c0.6-0.4 1.4-0.4 2.1 0l3.3 1.9c1.4 0.8 1.4 2.8 0 3.7l-19.7 11.4c-0.6 0.4-1.5 0.4-2.1 0l-3.4-2c-1.4-0.8-1.4-2.9 0-3.7z"/>
					<path id="&lt;Path&gt;" class="s11" d="m433.2 405.2l19.7-11.4c0.7-0.3 1.5-0.3 2.1 0l3.4 2c1.4 0.8 1.4 2.8 0 3.6l-19.7 11.4c-0.7 0.4-1.5 0.4-2.2 0l-3.3-1.9c-1.4-0.9-1.4-2.9 0-3.7z"/>
					<path id="&lt;Path&gt;" class="s11" d="m460.7 389.3l19.7-11.4c0.7-0.4 1.5-0.4 2.1 0l3.4 1.9c1.4 0.8 1.4 2.9 0 3.7l-19.8 11.4c-0.6 0.4-1.4 0.4-2.1 0l-3.4-2c-1.4-0.8-1.4-2.8 0.1-3.6z"/>
					<path id="&lt;Path&gt;" class="s11" d="m488.1 373.3l19.8-11.3c0.6-0.4 1.4-0.4 2.1 0l3.3 1.9c1.4 0.8 1.4 2.8 0 3.7l-19.7 11.4c-0.6 0.4-1.5 0.4-2.1 0l-3.4-2c-1.4-0.8-1.4-2.9 0-3.7z"/>
					<path id="&lt;Path&gt;" class="s11" d="m282.6 509.4l10.3-5.9c0.6-0.4 1.4-0.4 2 0l10.2 5.9c1.3 0.8 1.3 2.7 0 3.5l-10.3 5.9c-0.6 0.4-1.3 0.4-2 0l-10.2-5.9c-1.3-0.8-1.3-2.7 0-3.5z"/>
					<path id="&lt;Path&gt;" class="s11" d="m304 497.1l10.3-6c0.6-0.3 1.3-0.3 2 0l10.2 6c1.3 0.8 1.3 2.7 0 3.5l-10.3 5.9c-0.6 0.3-1.4 0.3-2 0l-10.2-6c-1.4-0.7-1.3-2.7 0-3.4z"/>
					<path id="&lt;Path&gt;" class="s11" d="m325.4 484.7l10.2-5.9c0.7-0.3 1.4-0.3 2 0l10.3 6c1.3 0.7 1.3 2.6 0 3.4l-10.3 5.9c-0.6 0.4-1.4 0.4-2 0l-10.2-5.9c-1.4-0.8-1.4-2.7 0-3.5z"/>
					<path id="&lt;Path&gt;" class="s11" d="m346.8 472.4l10.2-5.9c0.6-0.4 1.4-0.4 2 0l10.3 5.9c1.3 0.8 1.3 2.7 0 3.5l-10.3 5.9c-0.6 0.4-1.4 0.4-2 0l-10.2-5.9c-1.4-0.8-1.4-2.7 0-3.5z"/>
					<path id="&lt;Path&gt;" class="s11" d="m368.1 460.1l10.3-6c0.6-0.3 1.4-0.3 2 0l10.3 6c1.3 0.8 1.3 2.7 0 3.4l-10.3 6c-0.6 0.3-1.4 0.3-2 0l-10.3-6c-1.3-0.7-1.3-2.7 0-3.4z"/>
					<path id="&lt;Path&gt;" class="s11" d="m389.5 447.7l10.3-5.9c0.6-0.4 1.4-0.4 2 0l10.3 5.9c1.3 0.8 1.3 2.7-0.1 3.5l-10.2 5.9c-0.6 0.4-1.4 0.4-2 0l-10.3-5.9c-1.3-0.8-1.3-2.7 0-3.5z"/>
					<path id="&lt;Path&gt;" class="s11" d="m410.9 435.4l10.3-5.9c0.6-0.4 1.4-0.4 2 0l10.2 5.9c1.4 0.8 1.4 2.7 0 3.5l-10.2 5.9c-0.7 0.4-1.4 0.4-2 0l-10.3-5.9c-1.3-0.8-1.3-2.7 0-3.5z"/>
					<path id="&lt;Path&gt;" class="s11" d="m432.3 423.1l10.3-6c0.6-0.3 1.4-0.3 2 0l10.2 6c1.4 0.7 1.4 2.7 0 3.4l-10.3 6c-0.6 0.3-1.3 0.3-2 0l-10.2-6c-1.3-0.8-1.3-2.7 0-3.4z"/>
					<path id="&lt;Path&gt;" class="s11" d="m453.7 410.7l10.3-5.9c0.6-0.4 1.3-0.4 2 0l10.2 5.9c1.3 0.8 1.3 2.7 0 3.5l-10.3 5.9c-0.6 0.4-1.3 0.4-2 0l-10.2-5.9c-1.3-0.8-1.3-2.7 0-3.5z"/>
					<path id="&lt;Path&gt;" class="s11" d="m475.1 398.4l10.3-5.9c0.6-0.4 1.3-0.4 2 0l10.2 5.9c1.3 0.8 1.3 2.7 0 3.5l-10.3 5.9c-0.6 0.3-1.4 0.3-2 0l-10.2-6c-1.4-0.7-1.4-2.6 0-3.4z"/>
					<path id="&lt;Path&gt;" class="s11" d="m303.9 521.8l31.7-18.3c0.6-0.4 1.4-0.4 2 0l10.2 5.9c1.3 0.8 1.3 2.7 0 3.5l-31.6 18.3c-0.7 0.3-1.4 0.3-2.1 0l-10.2-6c-1.3-0.8-1.3-2.7 0-3.4z"/>
					<path id="&lt;Path&gt;" class="s11" d="m346.7 497.1l10.3-6c0.6-0.3 1.3-0.3 2 0l10.2 6c1.3 0.8 1.3 2.7 0 3.5l-10.3 5.9c-0.6 0.3-1.4 0.3-2 0l-10.2-6c-1.4-0.7-1.4-2.7 0-3.4z"/>
					<path id="&lt;Path&gt;" class="s11" d="m368.1 484.7l10.2-5.9c0.7-0.3 1.4-0.3 2 0l10.3 6c1.3 0.7 1.3 2.6 0 3.4l-10.3 5.9c-0.6 0.4-1.4 0.4-2 0l-10.2-5.9c-1.4-0.8-1.4-2.7 0-3.5z"/>
					<path id="&lt;Path&gt;" class="s11" d="m389.5 472.4l10.2-5.9c0.6-0.4 1.4-0.4 2 0l10.3 5.9c1.3 0.8 1.3 2.7 0 3.5l-10.3 5.9c-0.6 0.4-1.4 0.4-2 0l-10.2-5.9c-1.4-0.8-1.4-2.7 0-3.5z"/>
					<path id="&lt;Path&gt;" class="s11" d="m410.8 460.1l10.3-6c0.6-0.3 1.4-0.3 2 0l10.3 6c1.3 0.8 1.3 2.7 0 3.4l-10.3 6c-0.6 0.3-1.4 0.3-2 0l-10.3-6c-1.3-0.7-1.3-2.7 0-3.4z"/>
					<path id="&lt;Path&gt;" class="s11" d="m432.2 447.7l10.3-5.9c0.6-0.4 1.4-0.4 2 0l10.3 5.9c1.3 0.8 1.3 2.7-0.1 3.5l-10.2 5.9c-0.6 0.4-1.4 0.4-2 0l-10.3-5.9c-1.3-0.8-1.3-2.7 0-3.5z"/>
					<path id="&lt;Path&gt;" class="s11" d="m453.6 435.4l10.3-5.9c0.6-0.4 1.4-0.4 2 0l10.2 5.9c1.4 0.8 1.4 2.7 0 3.5l-10.2 5.9c-0.7 0.4-1.4 0.4-2 0l-10.3-5.9c-1.3-0.8-1.3-2.7 0-3.5z"/>
					<path id="&lt;Path&gt;" class="s11" d="m475 423.1l10.3-6c0.6-0.3 1.4-0.3 2 0l10.2 6c1.4 0.7 1.4 2.7 0 3.4l-10.3 6c-0.6 0.3-1.3 0.3-2 0l-10.2-6c-1.3-0.8-1.3-2.7 0-3.4z"/>
					<path id="&lt;Path&gt;" class="s11" d="m496.4 410.7l10.3-5.9c0.6-0.4 1.3-0.4 2 0l10.2 5.9c1.3 0.8 1.3 2.7 0 3.5l-10.3 5.9c-0.6 0.4-1.3 0.4-2 0l-10.2-5.9c-1.3-0.8-1.3-2.7 0-3.5z"/>
					<path id="&lt;Path&gt;" class="s11" d="m517.7 398.4l8.3-4.8c0.6-0.4 1.3-0.4 2 0l10.2 5.9c1.4 0.8 1.4 2.7 0 3.5l-8.2 4.8c-0.6 0.3-1.4 0.3-2 0l-10.2-6c-1.4-0.7-1.4-2.6-0.1-3.4z"/>
					<path id="&lt;Path&gt;" class="s11" d="m325.2 534.1l10.3-5.9c0.6-0.4 1.4-0.4 2 0l10.2 5.9c1.4 0.8 1.4 2.7 0 3.5l-10.2 5.9c-0.7 0.4-1.4 0.4-2 0l-10.3-5.9c-1.3-0.8-1.3-2.7 0-3.5z"/>
					<path id="&lt;Path&gt;" class="s11" d="m346.6 521.8l10.3-6c0.6-0.3 1.4-0.3 2 0l10.2 6c1.4 0.7 1.4 2.7 0 3.4l-10.2 6c-0.7 0.3-1.4 0.3-2.1 0l-10.2-6c-1.3-0.8-1.3-2.7 0-3.4z"/>
					<path id="&lt;Path&gt;" class="s11" d="m368 509.4l10.3-5.9c0.6-0.4 1.4-0.4 2 0l10.2 5.9c1.3 0.8 1.3 2.7 0 3.5l-10.3 5.9c-0.6 0.4-1.3 0.4-2 0l-10.2-5.9c-1.3-0.8-1.3-2.7 0-3.5z"/>
					<path id="&lt;Path&gt;" class="s11" d="m389.4 497.1l10.3-6c0.6-0.3 1.3-0.3 2 0.1l10.2 5.9c1.3 0.8 1.3 2.7 0 3.5l-10.3 5.9c-0.6 0.3-1.4 0.3-2 0l-10.2-6c-1.4-0.7-1.4-2.7 0-3.4z"/>
					<path id="&lt;Path&gt;" class="s11" d="m410.8 484.7l10.2-5.9c0.7-0.3 1.4-0.3 2 0l10.3 6c1.3 0.7 1.3 2.6 0 3.4l-10.3 6c-0.6 0.3-1.4 0.3-2-0.1l-10.2-5.9c-1.4-0.8-1.4-2.7 0-3.5z"/>
					<path id="&lt;Path&gt;" class="s11" d="m432.2 472.4l10.2-5.9c0.6-0.4 1.4-0.4 2 0l10.3 5.9c1.3 0.8 1.3 2.7 0 3.5l-10.3 5.9c-0.6 0.4-1.4 0.4-2 0l-10.2-5.9c-1.4-0.8-1.4-2.7 0-3.5z"/>
					<path id="&lt;Path&gt;" class="s11" d="m453.5 460.1l10.3-6c0.6-0.3 1.4-0.3 2 0l10.3 6c1.3 0.8 1.3 2.7 0 3.4l-10.3 6c-0.6 0.3-1.4 0.3-2 0l-10.3-6c-1.3-0.7-1.3-2.7 0-3.4z"/>
					<path id="&lt;Path&gt;" class="s11" d="m474.9 447.7l10.3-5.9c0.6-0.4 1.4-0.4 2 0l10.3 5.9c1.3 0.8 1.3 2.7-0.1 3.5l-10.2 5.9c-0.6 0.4-1.4 0.4-2 0l-10.3-5.9c-1.3-0.8-1.3-2.7 0-3.5z"/>
					<path id="&lt;Path&gt;" class="s11" d="m496.3 435.4l10.3-5.9c0.6-0.4 1.4-0.4 2 0l10.2 5.9c1.4 0.8 1.4 2.7 0 3.5l-10.2 5.9c-0.7 0.4-1.4 0.4-2 0l-10.3-5.9c-1.3-0.8-1.3-2.7 0-3.5z"/>
					<path id="&lt;Path&gt;" class="s11" d="m517.7 423.1l10.3-6c0.6-0.3 1.4-0.3 2 0l10.2 6c1.4 0.7 1.4 2.7 0 3.4l-10.3 6c-0.6 0.3-1.3 0.3-2 0l-10.2-6c-1.3-0.7-1.3-2.7 0-3.4z"/>
					<path id="&lt;Path&gt;" class="s11" d="m539.1 410.7l24.7-14.3c0.6-0.4 1.4-0.4 2 0l10.2 5.9c1.4 0.8 1.4 2.7 0 3.5l-24.7 14.3c-0.6 0.4-1.4 0.4-2 0l-10.2-5.9c-1.4-0.8-1.4-2.7 0-3.5z"/>
					<path id="&lt;Path&gt;" class="s11" d="m346.5 546.4l10.3-5.9c0.6-0.4 1.4-0.4 2 0l10.3 5.9c1.3 0.8 1.3 2.7-0.1 3.5l-10.2 5.9c-0.6 0.4-1.4 0.4-2 0l-10.3-5.9c-1.3-0.8-1.3-2.7 0-3.5z"/>
					<path id="&lt;Path&gt;" class="s11" d="m367.9 534.1l10.3-5.9c0.6-0.4 1.4-0.4 2 0l10.2 5.9c1.4 0.8 1.4 2.7 0 3.5l-10.2 5.9c-0.7 0.4-1.4 0.4-2 0l-10.3-5.9c-1.3-0.8-1.3-2.7 0-3.5z"/>
					<path id="&lt;Path&gt;" class="s11" d="m389.3 521.8l10.3-6c0.6-0.3 1.4-0.3 2 0l10.2 6c1.4 0.7 1.4 2.7 0 3.4l-10.3 6c-0.6 0.3-1.3 0.3-2 0l-10.2-6c-1.3-0.8-1.3-2.7 0-3.4z"/>
					<path id="&lt;Path&gt;" class="s11" d="m410.7 509.4l117.6-67.6c0.6-0.3 1.4-0.3 2 0l10.2 6c1.4 0.7 1.3 2.7 0 3.4l-117.6 67.6c-0.6 0.4-1.3 0.4-2 0l-10.2-5.9c-1.3-0.8-1.3-2.7 0-3.5z"/>
					<path id="&lt;Path&gt;" class="s11" d="m537.1 437.3l10.2-5.9c0.7-0.4 1.4-0.4 2 0l10.3 5.9c1.3 0.8 1.3 2.7 0 3.5l-10.3 5.9c-0.6 0.4-1.4 0.4-2 0l-10.2-5.9c-1.4-0.8-1.4-2.7 0-3.5z"/>
					<path id="&lt;Path&gt;" class="s11" d="m556.5 425.9l10.3-5.9c0.6-0.4 1.4-0.4 2 0l10.3 5.9c1.3 0.8 1.3 2.7 0 3.5l-10.3 5.9c-0.6 0.4-1.4 0.4-2 0l-10.3-5.9c-1.3-0.8-1.3-2.7 0-3.5z"/>
					<path id="&lt;Path&gt;" class="s11" d="m574.7 414.9l10.3-6c0.6-0.3 1.4-0.3 2 0l10.3 6c1.3 0.8 1.3 2.7 0 3.5l-10.3 5.9c-0.6 0.3-1.4 0.3-2 0l-10.3-6c-1.3-0.7-1.3-2.7 0-3.4z"/>
					<path id="&lt;Path&gt;" class="s11" d="m555.3 393.6c1.3-0.8 1.3-2.7 0-3.4l-18.9-10.8-13.2-7.7c-0.7-0.4-1.4-0.4-2 0l-24.7 14.3c-1.4 0.8-1.4 2.7 0 3.5l10.2 5.9c0.6 0.4 1.4 0.4 2 0l16.4-9.4c0.6-0.4 1.3-0.4 2-0.1l20.2 11.4c0.6 0.4 1.4 0.3 2 0z"/>
				</g>
			</g>
			<g id="&lt;Group&gt;">
				<path id="&lt;Path&gt;" class="s6" d="m754.7 525c0.1-1.4-0.6-2.8-2-3.6l-119.7-69c-3.1-1.9-7-1.9-10.2 0l-194.5 112.2c-1.3 0.8-2 2.2-2 3.5q0 0.1 0 0.2 0 0 0 0.1 0 0.1 0 0.1 0 0.1 0 0.1 0 0.1 0 0.2 0 0 0 0.1 0 0.1 0 0.1 0 0.1 0 0.2 0 0 0 0.1 0 0 0 0.1 0 0.1 0 0.1 0 0.1 0 0.2 0 0 0 0.1 0 0.1 0 0.1 0 0.1 0 0.2 0 0 0 0.1 0 0 0 0.1 0 0.1 0 0.1 0 0.1 0 0.2 0 0 0 0.1 0 0.1 0 0.1 0 0.1 0 0.1 0 0.1 0 0.2 0 0 0 0.1 0 0.1 0 0.1 0 0.1 0 0.2 0 0 0 0.1 0 0 0 0.1 0 0.1 0 0.1 0 0.1 0 0.2 0 0 0 0.1 0 0.1 0 0.1 0 0.1 0 0.2 0 0 0 0.1 0 0 0 0.1 0 0.1 0 0.1 0 0.1 0 0.2 0 0 0 0.1 0 0.1 0 0.1 0 0.1 0 0.1 0 0.1 0 0.2 0 0 0 0.1 0 0.1 0 0.1 0 0.1 0 0.2 0 0 0 0.1 0 0 0 0.1c0 1.4 0.7 2.8 2 3.6l119.2 68.8c3.5 2 7.8 2 11.3 0l193.9-112c1.4-0.8 2.1-2.1 2-3.5q0-0.1 0-0.2 0 0 0-0.1 0 0 0-0.1 0-0.1 0-0.1 0-0.1 0-0.2 0 0 0-0.1 0-0.1 0-0.1 0-0.1 0-0.2 0 0 0-0.1 0 0 0-0.1 0-0.1 0-0.1 0-0.1 0-0.2 0 0 0-0.1 0-0.1 0-0.1 0-0.1 0-0.1 0-0.1 0-0.2 0 0 0-0.1 0-0.1 0-0.1 0-0.1 0-0.2 0 0 0-0.1 0 0 0-0.1 0-0.1 0-0.1 0-0.1 0-0.2 0 0 0-0.1 0-0.1 0-0.1 0-0.1 0-0.1 0-0.1 0-0.2 0 0 0-0.1 0-0.1 0-0.1 0-0.1 0-0.2 0 0 0-0.1 0-0.1 0-0.1 0-0.1 0-0.1 0-0.1 0-0.2 0 0 0-0.1 0-0.1 0-0.1 0-0.1 0-0.2 0 0 0-0.1 0 0 0-0.1 0-0.1 0-0.1 0-0.1 0-0.2 0 0 0-0.1 0-0.1 0-0.1 0-0.1 0-0.1 0-0.1 0-0.2 0 0 0-0.1z"/>
				<path id="&lt;Path&gt;" class="s11" d="m428.3 564.6l194.5-112.2c3.2-1.9 7.1-1.9 10.2 0l119.7 69c2.7 1.6 2.7 5.5 0 7l-193.9 112c-3.5 2-7.8 2-11.3 0l-119.2-68.8c-2.7-1.6-2.6-5.5 0-7z"/>
				<path id="&lt;Path&gt;" class="s6" d="m497.2 546.4l130.8-75.4 93.4 54-130.8 75.5z"/>
				<path id="&lt;Path&gt;" class="s6" d="m536.8 589.7c0 5.9-9.4 10.6-21 10.6-11.6 0-21-4.7-21-10.6 0-5.9 9.4-10.7 21-10.7 11.6 0 21 4.8 21 10.7z"/>
				<path id="&lt;Path&gt;" class="s6" d="m459.7 568.1l18.7-10.8 18.7 10.8-18.7 10.8z"/>
				<path id="&lt;Path&gt;" class="s6" d="m534.5 611.3l18.6-10.8 18.8 10.8-18.8 10.7z"/>
			</g>
			<g id="&lt;Group&gt;">
				<path id="&lt;Path&gt;" class="s22" d="m660.1 433.5h9.6c2.4 0 4.7 0.6 6.7 1.8l31.9 18.4c7.6 4.3 49.4 33.2 49.4 33.2 2.1 1.6 1.9 4.8-0.4 6.1-1.2 0.7-2.6 0.7-3.8 0l-83.7-46.3c-2-1.1-3.7-2.8-4.9-4.9z"/>
				<path id="&lt;Path&gt;" class="s11" d="m700.8 449.3l-0.2-0.1-24.2-13.9q-1-0.6-2-1-0.2-0.1-0.4-0.1-1.1-0.4-2.2-0.6c-2.7 1.8-5.4 4.6-6.3 9.2q0.4 0.5 0.9 1 0 0.1 0.1 0.2 0.4 0.5 0.8 0.9 0.3 0.2 0.5 0.4 0.3 0.3 0.7 0.6 0.6 0.4 1.3 0.8l24 13.3c-0.2-3.9 1.4-8 7-10.7z"/>
				<g id="&lt;Group&gt;">
					<path id="&lt;Path&gt;" class="s22" d="m661.1 434.6q-0.1 0-0.1 0l-2.2-1c-0.3-0.1-0.4-0.4-0.3-0.6 0.1-0.3 0.4-0.4 0.7-0.3l2.1 0.9c0.3 0.1 0.4 0.4 0.3 0.7-0.1 0.2-0.3 0.3-0.5 0.3z"/>
				</g>
			</g>
		</g>
	</g>
</svg>